<svg width="85" height="85" viewBox="0 0 85 85" fill="none" xmlns="http://www.w3.org/2000/svg">
<path fill-rule="evenodd" clip-rule="evenodd" d="M83.9692 15.7335L68.4128 0.177124C68.4128 0.177124 67.5369 9.53833 61.8801 15.1952L42.0732 35.0021L22.4431 15.3719C16.4329 9.36157 15.9104 0.353882 15.9104 0.353882L0.354004 15.9103C0.354004 15.9103 9.71533 16.7863 15.3721 22.4431L35.0022 42.0731L15.1951 61.8802C9.18481 67.8906 0.177002 68.413 0.177002 68.413L15.7334 83.9694C15.7334 83.9694 16.6094 74.6082 22.2661 68.9513L42.0732 49.1443L62.0569 69.1281C68.0671 75.1384 68.5896 84.1461 68.5896 84.1461L84.146 68.5897C84.146 68.5897 74.7847 67.7137 69.1279 62.0569L49.1443 42.0732L68.9512 22.2662C74.9614 16.2559 83.9692 15.7335 83.9692 15.7335Z" fill="white"/>
</svg>
